<svg width="142" height="32" viewBox="0 0 142 32" fill="none" xmlns="http://www.w3.org/2000/svg">
<path d="M1.32125 18.5506C1.32125 18.5506 0.0433967 19.822 0.00246382 21.5941C-0.0273056 22.3946 0.208617 23.3015 0.932757 24.2374C0.932757 24.2374 0.944665 24.2553 0.97369 24.2902C1.22673 24.5551 1.53931 24.8021 1.93375 25.0022C1.98659 25.032 2.04539 25.061 2.10493 25.0788C2.16372 25.1026 2.22847 25.1316 2.29917 25.1554C2.4696 25.2202 2.66459 25.273 2.87595 25.3206C3.38278 25.4262 4.00049 25.4798 4.7544 25.4203C4.86604 25.4084 4.97842 25.3965 5.09601 25.3846C5.21359 25.3667 5.33193 25.3548 5.45547 25.3318C5.57901 25.3139 5.70256 25.2908 5.83205 25.267C5.84396 25.267 5.84991 25.267 5.86182 25.2611C5.87373 25.2611 5.88564 25.2611 5.89755 25.2551C7.08237 25.0223 8.5299 24.5342 10.2751 23.6772L3.0181 16.7666C2.44058 17.3536 1.87124 17.9495 1.32125 18.5506Z" fill="#2072EF"/>
<path d="M4.97363 14.8461L12.8841 22.3787C13.5956 22.1228 14.5103 21.9026 15.5671 21.8847L6.59086 13.3374C6.06096 13.8217 5.5199 14.3254 4.97363 14.8461Z" fill="#2072EF"/>
<path d="M8.85254 11.7919C8.85254 11.7919 26.7067 28.7578 26.086 28.1292L27.4837 26.4449L10.539 10.3494C10.0269 10.7794 9.46132 11.2615 8.85254 11.7919Z" fill="#2072EF"/>
<path d="M14.0947 7.01886C14.0947 7.01886 13.6236 7.38414 12.8578 8.00163C12.8578 8.00163 12.7283 8.10206 12.4923 8.29623C12.4648 8.32079 12.4343 8.3431 12.4053 8.36542L29.2391 24.3828L30.6569 22.6955L14.1401 6.96753C14.123 6.98538 14.1118 7.00175 14.0947 7.01886Z" fill="#2072EF"/>
<path d="M13.5056 1.13173C13.5056 1.13173 12.8678 1.34674 12.5664 1.84221L32.3482 20.6911L33.7704 19.0082L14.7306 0.85498C14.3049 0.916729 13.8911 1.00377 13.5056 1.13173Z" fill="#2072EF"/>
<path d="M22.7034 1.81481C22.7034 1.81481 21.0348 1.27024 18.9473 0.957031L35.6427 16.781L37.0418 15.1301L35.9277 14.0767L23.3018 2.05585C23.1046 1.97551 22.9073 1.89516 22.7034 1.81481Z" fill="#2072EF"/>
<path d="M93.4873 31.3308V7.49448H95.6099V10.6228L95.6776 10.637C96.1993 9.47489 96.9807 8.57917 98.0011 7.97508C99.0207 7.37024 100.249 7.06299 101.651 7.06299C103.171 7.06299 104.532 7.44241 105.696 8.19008C106.86 8.9385 107.775 10.0098 108.416 11.375C109.058 12.7416 109.384 14.3515 109.384 16.1593C109.384 17.9433 109.058 19.5287 108.416 20.8708C107.775 22.2129 106.86 23.2663 105.696 24.0021C104.532 24.7379 103.171 25.1114 101.652 25.1114C100.249 25.1114 99.0222 24.8048 98.0018 24.1993C96.9807 23.5944 96.1993 22.6987 95.6783 21.5374L95.6106 21.5515V31.3308H93.4873ZM101.364 8.89758C99.5379 8.89758 98.1075 9.53069 97.1102 10.7805C96.1152 12.0274 95.6099 13.8122 95.6099 16.0872C95.6099 18.3622 96.1085 20.1417 97.0924 21.376C98.077 22.6132 99.5022 23.2403 101.328 23.2403C103.176 23.2403 104.631 22.6132 105.653 21.376C106.672 20.141 107.189 18.386 107.189 16.1586C107.189 13.8843 106.672 12.0869 105.653 10.8155C104.631 9.54334 103.188 8.89758 101.364 8.89758Z" fill="#2072EF"/>
<path d="M116.562 25.1114C115.447 25.1114 114.411 24.883 113.484 24.4314C112.559 23.9805 111.819 23.3437 111.287 22.5388C110.754 21.7345 110.483 20.8336 110.483 19.862C110.483 18.5824 110.819 17.5751 111.48 16.8668C112.143 16.1564 113.262 15.6401 114.805 15.3313C116.356 15.0218 118.543 14.8649 121.308 14.8649H122.099V13.4989C122.099 11.9158 121.769 10.7404 121.119 10.0061C120.467 9.2703 119.429 8.89758 118.035 8.89758C116.983 8.89758 115.957 9.04935 114.986 9.34842C114.027 9.64526 113.024 10.1288 112.008 10.7865L111.198 9.13267C112.066 8.53602 113.128 8.01748 114.342 7.63658C115.556 7.25567 116.763 7.06299 117.928 7.06299C120.018 7.06299 121.6 7.61575 122.632 8.70564C123.664 9.79628 124.186 11.4694 124.186 13.6782V24.8592H122.099V21.7665L122.032 21.7517C121.534 22.8192 120.8 23.6547 119.852 24.235C118.903 24.8168 117.797 25.1114 116.562 25.1114ZM121.381 16.4115C119.089 16.4115 117.31 16.5083 116.09 16.6994C114.865 16.8921 113.987 17.2277 113.482 17.6971C112.973 18.1695 112.715 18.8614 112.715 19.7541C112.715 20.7674 113.107 21.617 113.879 22.2791C114.648 22.9412 115.611 23.276 116.743 23.276C118.305 23.276 119.602 22.7404 120.599 21.6832C121.596 20.6268 122.101 19.2639 122.101 17.6324V16.4115H121.381Z" fill="#2072EF"/>
<path d="M129.592 31.3311L132.411 24.9092L124.952 7.49472H127.236L133.529 22.7592L139.855 7.47314L142 7.49398L131.744 31.3311H129.592Z" fill="#2072EF"/>
<path d="M56.5783 21.8398V25.0359H41.1533V22.249L41.198 22.1947L51.2131 10.2966H41.4391V7.10059H56.2189V9.9172L56.1742 9.97672L46.1635 21.8398H56.5783Z" fill="#2072EF"/>
<path d="M71.3597 20.1209C69.773 21.4013 67.9749 22.0515 66.0191 22.0515C62.7482 22.0515 61.0037 20.3575 60.6934 16.8758H73.0834V15.5263C73.0834 12.7833 72.3838 10.5968 71.0047 9.03526C69.6152 7.46402 67.684 6.6665 65.2652 6.6665C63.6048 6.6665 62.1022 7.0608 60.7916 7.84344C59.481 8.62608 58.4517 9.74425 57.732 11.1578C57.0131 12.5713 56.6484 14.211 56.6484 16.0284C56.6484 18.8994 57.4857 21.1848 59.1364 22.8193C60.7871 24.459 63.063 25.2862 65.9104 25.2862C67.1719 25.2862 68.4282 25.0794 69.645 24.6658C70.8618 24.2521 71.8963 23.6808 72.7291 22.9762L72.8378 22.878M60.738 14.394C60.9203 12.9217 61.3929 11.7738 62.1521 10.971C62.9357 10.1438 64.0097 9.72044 65.3344 9.72044C66.6353 9.72044 67.6549 10.1393 68.3694 10.9666C69.0593 11.7641 69.4582 12.9165 69.552 14.394H60.738Z" fill="#2072EF"/>
<path d="M91.0857 11.0552C90.4159 9.66175 89.4647 8.57335 88.2628 7.81005C87.0609 7.05196 85.6617 6.66733 84.0951 6.66733C82.7503 6.66733 81.5431 6.96789 80.5086 7.55413C79.6907 8.02728 79.0157 8.65741 78.5037 9.43559V0H74.4736V25.0356H78.5037V22.5538C79.0157 23.3319 79.6907 23.9576 80.5086 24.4151C81.5431 24.9962 82.7503 25.2871 84.0951 25.2871C85.6372 25.2871 87.0363 24.8883 88.2479 24.1049C89.4595 23.3223 90.4159 22.2041 91.0902 20.7906C91.7555 19.3771 92.0949 17.7419 92.0949 15.9251C92.0956 14.0786 91.7555 12.4434 91.0857 11.0552ZM87.6764 18.5059C87.4642 19.2595 87.1494 19.9097 86.7252 20.4365C85.8976 21.4854 84.7203 22.0174 83.2325 22.0174C81.7202 22.0174 80.5429 21.5003 79.7346 20.4759C78.9167 19.4366 78.5029 17.9301 78.5029 15.9943C78.5029 14.0585 78.9167 12.552 79.7346 11.5127C80.5429 10.4935 81.7202 9.97124 83.2325 9.97124C84.7448 9.97124 85.9274 10.4883 86.7453 11.4978C87.5781 12.5267 87.9964 14.0146 87.9964 15.9251C87.9971 16.8908 87.8885 17.7523 87.6764 18.5059Z" fill="#2072EF"/>
</svg>
