<svg width="297" height="76" viewBox="0 0 297 76" fill="none" xmlns="http://www.w3.org/2000/svg">
<path fill-rule="evenodd" clip-rule="evenodd" d="M187.765 21.8825C190.209 23.4346 192.142 25.6478 193.504 28.4818C194.865 31.3058 195.556 34.6305 195.556 38.3858C195.556 42.081 194.866 45.4057 193.514 48.2798C192.142 51.1539 190.199 53.4271 187.735 55.0194C185.272 56.6116 182.428 57.4227 179.293 57.4227C176.56 57.4227 174.106 56.8319 172.003 55.6502C170.341 54.7189 168.969 53.4471 167.927 51.8649V56.912H159.736V6H167.927V25.1871C168.969 23.6049 170.341 22.3231 172.003 21.3617C174.106 20.17 176.56 19.5592 179.293 19.5592C182.478 19.5592 185.322 20.3403 187.765 21.8825ZM184.641 47.5588C185.502 46.4873 186.143 45.1654 186.574 43.6332C187.004 42.1011 187.225 40.3486 187.225 38.3858C187.225 34.5003 186.373 31.476 184.681 29.3831C183.019 27.3302 180.615 26.2787 177.541 26.2787C174.467 26.2787 172.073 27.3402 170.431 29.4131C168.769 31.5261 167.927 34.5905 167.927 38.526C167.927 42.4616 168.769 45.5259 170.431 47.6389C172.073 49.7218 174.467 50.7733 177.541 50.7733C180.565 50.7733 182.959 49.6918 184.641 47.5588ZM153.407 46.9178C150.182 49.5215 146.527 50.8434 142.551 50.8434C135.902 50.8434 132.357 47.3985 131.726 40.3185H156.912V37.5746C156.912 31.9967 155.49 27.5505 152.686 24.376C149.862 21.1814 145.936 19.5592 141.019 19.5592C137.645 19.5592 134.59 20.3603 131.926 21.9525C129.263 23.5448 127.17 25.818 125.708 28.6921C124.246 31.5661 123.505 34.9008 123.505 38.5961C123.505 44.4343 125.207 49.0809 128.562 52.4056C131.916 55.7403 136.543 57.4227 142.331 57.4227C144.895 57.4227 147.448 57.0021 149.922 56.1609C152.395 55.3197 154.498 54.1581 156.191 52.7261L156.411 52.5258L153.407 46.9178ZM131.816 35.2714C132.187 32.2772 133.148 29.9438 134.69 28.3115C136.283 26.6291 138.466 25.7679 141.16 25.7679C143.803 25.7679 145.876 26.6191 147.328 28.3015C148.73 29.9238 149.541 32.2671 149.732 35.2714H131.816ZM198.38 21.2416V69.7101H202.697V49.822L202.837 49.792C203.898 52.1553 205.491 53.9779 207.563 55.2096C209.636 56.4414 212.13 57.0622 214.984 57.0622C218.078 57.0622 220.842 56.3012 223.206 54.8091C225.569 53.3069 227.432 51.1639 228.733 48.4401C230.035 45.7062 230.696 42.4816 230.696 38.8565C230.696 35.1813 230.035 31.9167 228.733 29.1328C227.432 26.3488 225.569 24.1757 223.206 22.6536C220.842 21.1314 218.078 20.3603 214.984 20.3603C212.13 20.3603 209.636 20.9812 207.563 22.213C205.491 23.4447 203.898 25.2673 202.837 27.6306L202.697 27.6006V21.2416H198.38ZM205.751 27.921C207.774 25.3874 210.678 24.0956 214.393 24.0956C218.108 24.0956 221.033 25.4075 223.125 28.0012C225.198 30.5848 226.25 34.24 226.25 38.8665C226.25 43.3929 225.198 46.958 223.125 49.4715C221.053 51.9951 218.088 53.2669 214.333 53.2669C210.618 53.2669 207.724 51.9851 205.721 49.4715C203.718 46.958 202.707 43.3428 202.707 38.7163C202.707 34.0897 203.728 30.4546 205.751 27.921ZM239.028 55.6803C240.911 56.6016 243.024 57.0622 245.287 57.0622C247.8 57.0622 250.044 56.4614 251.986 55.2797C253.909 54.0981 255.401 52.4057 256.413 50.2326L256.553 50.2626V56.5515H260.799V33.8194C260.799 29.323 259.727 25.9182 257.634 23.7051C255.531 21.4819 252.317 20.3603 248.071 20.3603C245.697 20.3603 243.244 20.7609 240.78 21.532C238.317 22.3131 236.154 23.3646 234.391 24.5763L236.034 27.9411C238.097 26.5992 240.13 25.6178 242.082 25.0169C244.055 24.4061 246.138 24.0956 248.281 24.0956C251.115 24.0956 253.228 24.8567 254.55 26.3488C255.872 27.8409 256.543 30.2343 256.543 33.4489V36.2228H254.93C249.313 36.2228 244.866 36.5432 241.712 37.1741C238.577 37.805 236.304 38.8565 234.952 40.2985C233.61 41.7406 232.929 43.7835 232.929 46.3871C232.929 48.3699 233.48 50.2025 234.562 51.8349C235.643 53.4672 237.145 54.759 239.028 55.6803ZM244.325 39.9581C246.799 39.5775 250.424 39.3772 255.081 39.3772H256.543V41.8608C256.543 45.1855 255.511 47.9494 253.488 50.1024C251.456 52.2455 248.822 53.337 245.647 53.337C243.354 53.337 241.391 52.656 239.829 51.3141C238.257 49.9622 237.466 48.2398 237.466 46.1769C237.466 44.3543 237.997 42.9523 239.028 41.9909C240.049 41.0296 241.832 40.3486 244.325 39.9581ZM271.774 69.7101L277.502 56.6516L262.341 21.2416H266.988L279.776 52.2755L292.634 21.1915L297 21.2416L276.15 69.7101H271.774ZM123.354 56.912V50.4128H102.184L122.533 26.2887L122.623 26.1685V20.4404H92.5808V26.9396H112.449L92.0902 51.1339L92 51.244V56.912H123.354Z" fill="#338FFF"/>
<path d="M2.7982 45.445C2.7982 45.445 0.098928 48.1339 0.00513296 51.8857C-0.057397 53.5844 0.442858 55.502 1.97484 57.4821C1.97484 57.4821 1.9957 57.5238 2.05823 57.5967C2.58974 58.1595 3.25674 58.6806 4.09047 59.1079C4.20511 59.1704 4.33015 59.2329 4.45521 59.2746C4.58027 59.3267 4.71576 59.3893 4.86167 59.4414C5.22642 59.5769 5.63285 59.6915 6.08098 59.7853C7.15442 60.0145 8.45712 60.1188 10.0516 59.9937C10.2913 59.9729 10.5206 59.9416 10.7707 59.9208C11.0209 59.8791 11.271 59.8582 11.5315 59.8061C11.792 59.7644 12.0526 59.7228 12.3236 59.6706C12.3444 59.6706 12.3652 59.6706 12.3861 59.6602C12.4069 59.6602 12.4382 59.6602 12.459 59.6498C14.9707 59.16 18.0242 58.1282 21.7239 56.3149L6.37282 41.6933C5.16391 42.9126 3.96542 44.1736 2.7982 45.445Z" fill="#338FFF"/>
<path d="M10.5311 37.608L27.2683 53.5531C28.769 53.0112 30.7074 52.5422 32.9481 52.511L13.9598 34.4189C12.8238 35.4298 11.6879 36.5033 10.5311 37.608Z" fill="#338FFF"/>
<path d="M18.2014 30.615L56.8866 67.466C56.8866 67.4556 56.8971 67.4452 56.8971 67.4244L59.367 63.3703L21.776 27.5615C20.6922 28.4682 19.4937 29.4895 18.2014 30.615Z" fill="#338FFF"/>
<path d="M29.8216 21.0375C29.8216 21.0375 28.8211 21.8087 27.2057 23.1218C27.2057 23.1218 26.9348 23.3303 26.4345 23.7472C26.372 23.7993 26.3095 23.8514 26.247 23.893L62.4205 58.3471L64.9009 54.2618L29.9154 20.9333C29.8841 20.9646 29.8529 21.0063 29.8216 21.0375Z" fill="#338FFF"/>
<path d="M28.571 8.58361C28.571 8.58361 27.2265 9.04217 26.5804 10.0843L67.8503 49.3949L70.3306 45.3096L31.1555 8C30.2697 8.12506 29.3943 8.31265 28.571 8.58361Z" fill="#338FFF"/>
<path d="M48.0282 10.0322C48.0282 10.0322 44.4953 8.87544 40.0869 8.21888L73.5196 40.0675L76 35.9822L49.2893 10.5429C48.8828 10.3657 48.4659 10.199 48.0282 10.0322Z" fill="#338FFF"/>
</svg>
